<svg
   xmlns:dc="http://purl.org/dc/elements/1.1/"
   xmlns:cc="http://creativecommons.org/ns#"
   xmlns:rdf="http://www.w3.org/1999/02/22-rdf-syntax-ns#"
   xmlns:svg="http://www.w3.org/2000/svg"
   xmlns="http://www.w3.org/2000/svg"
   id="svg53"
   version="1.1"
   viewBox="0 0  380 280">
  <metadata
     id="metadata59">
    <rdf:RDF>
      <cc:Work
         rdf:about="">
        <dc:format>image/svg+xml</dc:format>
        <dc:type
           rdf:resource="http://purl.org/dc/dcmitype/StillImage" />
      </cc:Work>
    </rdf:RDF>
  </metadata>
  <defs
     id="defs57" />
  <svg
     height="100%"
     width="100%"
     id="svg2"
     version="1.1"
     viewBox="0 0 380 280" />
  <linearGradient
     y2="0%"
     x2="100%"
     y1="0%"
     x1="40%"
     id="grad1">
    <stop
       id="stop4"
       style="stop-color:#5596e6;stop-opacity:1"
       offset="10%" />
    <stop
       id="stop6"
       style="stop-color:#589bed;stop-opacity:1"
       offset="100%" />
  </linearGradient>
  <path
     id="path9"
     style="fill:url(#grad1);"
     d="M142.0 110.0 L 263.0 110.0  L 258.0 150.0 L 137.0 150.0 Z " />
  <g
     id="text11"
     style="font-size:40px;font-family:IDJueJiangHei;fill:#ffffff;fill-opacity:1"
     aria-label="L">
    <path
       id="path61"
       style="font-size:40px;font-family:IDJueJiangHei;fill:#ffffff;fill-opacity:1"
       d="m 147.46,115.335 h 7.28 v 23.6 h 12.76 v 5.84 h -20.04 z" />
  </g>
  <g
     id="text13"
     style="font-size:40px;font-family:IDJueJiangHei;fill:#ffffff;fill-opacity:1"
     aria-label="e">
    <path
       id="path64"
       style="font-size:40px;font-family:IDJueJiangHei;fill:#ffffff;fill-opacity:1"
       d="m 197.805,138.415 -1.4,6.48 h -22.24 v -22.12 h 23.12 v 12.96 h -15.92 v 4.8 h 9.44 l 0.64,-2.12 z m -16.44,-11.24 v 4.16 h 8.96 v -4.16 z" />
  </g>
  <g
     id="text15"
     style="font-size:40px;font-family:IDJueJiangHei;fill:#ffffff;fill-opacity:1"
     aria-label="o">
    <path
       id="path67"
       style="font-size:40px;font-family:IDJueJiangHei;fill:#ffffff;fill-opacity:1"
       d="m 204.01,144.895 v -22.08 h 23.04 v 22.08 z m 15.76,-16.8 h -8.88 v 11.72 h 8.88 z" />
  </g>
  <g
     id="text17"
     style="font-size:40px;font-family:IDJueJiangHei;fill:#ffffff;fill-opacity:1"
     aria-label="n">
    <path
       id="path70"
       style="font-size:40px;font-family:IDJueJiangHei;fill:#ffffff;fill-opacity:1"
       d="m 246.78,144.895 v -16.56 h -7.48 v 16.56 h -6.88 v -21.96 h 21.2 v 21.96 z" />
  </g>
  <path
     id="path19"
     style="fill:#5596e6;"
     d="M132.0 110.0 L 137.0 110.0  L 132.0 150.0 L 127.0 150.0 Z " />
  <path
     id="path21"
     style="fill:#5596e6;"
     d="M122.0 110.0 L 127.0 110.0  L 122.0 150.0 L 117.0 150.0 Z " />
  <g
     id="text23"
     style="font-size:12px;font-family:'Alibaba PuHuiTi Medium';fill:#9e9e9e;fill-opacity:1"
     aria-label="T">
    <path
       id="path73"
       style="font-size:12px;font-family:'Alibaba PuHuiTi Medium';fill:#9e9e9e;fill-opacity:1"
       d="m 149.062,158.802 h -2.268 v 6.948 h -1.572 v -6.948 h -2.256 v -1.38 h 6.096 z" />
  </g>
  <g
     id="text25"
     style="font-size:12px;font-family:'Alibaba PuHuiTi Medium';fill:#9e9e9e;fill-opacity:1"
     aria-label="r">
    <path
       id="path76"
       style="font-size:12px;font-family:'Alibaba PuHuiTi Medium';fill:#9e9e9e;fill-opacity:1"
       d="m 155.8365,159.15 -0.048,1.344 h -0.156 q -0.312,0 -0.612,0.06 -0.288,0.06 -0.54,0.228 -0.252,0.156 -0.444,0.432 -0.192,0.264 -0.276,0.684 v 3.852 h -1.5 v -6.48 h 1.5 v 1.164 q 0.144,-0.396 0.36,-0.648 0.216,-0.252 0.468,-0.396 0.264,-0.144 0.54,-0.192 0.288,-0.048 0.576,-0.048 z" />
  </g>
  <g
     id="text27"
     style="font-size:12px;font-family:'Alibaba PuHuiTi Medium';fill:#9e9e9e;fill-opacity:1"
     aria-label="u">
    <path
       id="path79"
       style="font-size:12px;font-family:'Alibaba PuHuiTi Medium';fill:#9e9e9e;fill-opacity:1"
       d="m 165.4895,159.27 v 6.48 h -1.344 l -0.132,-0.828 q -0.276,0.528 -0.804,0.744 -0.516,0.204 -1.2,0.204 -0.612,0 -1.032,-0.144 -0.408,-0.144 -0.672,-0.42 -0.252,-0.276 -0.36,-0.672 -0.108,-0.408 -0.108,-0.912 v -4.452 h 1.5 v 4.02 q 0,0.336 0.048,0.588 0.048,0.252 0.168,0.42 0.132,0.156 0.348,0.24 0.216,0.084 0.564,0.084 0.54,0 0.936,-0.204 0.396,-0.204 0.588,-0.828 v -4.32 z" />
  </g>
  <g
     id="text29"
     style="font-size:12px;font-family:'Alibaba PuHuiTi Medium';fill:#9e9e9e;fill-opacity:1"
     aria-label="s">
    <path
       id="path82"
       style="font-size:12px;font-family:'Alibaba PuHuiTi Medium';fill:#9e9e9e;fill-opacity:1"
       d="m 170.89,165.822 q -0.54,0 -1.08,-0.06 -0.54,-0.048 -0.924,-0.144 v -1.26 q 0.42,0.132 0.948,0.216 0.54,0.072 0.984,0.072 0.624,0 0.924,-0.156 0.3,-0.156 0.3,-0.612 0,-0.228 -0.06,-0.372 -0.048,-0.156 -0.192,-0.264 -0.144,-0.108 -0.408,-0.192 -0.252,-0.084 -0.66,-0.18 -0.528,-0.12 -0.864,-0.276 -0.336,-0.156 -0.54,-0.36 -0.192,-0.216 -0.276,-0.504 -0.072,-0.3 -0.072,-0.708 0,-0.876 0.588,-1.368 0.588,-0.504 1.908,-0.504 0.516,0 0.996,0.06 0.492,0.06 0.732,0.156 l -0.072,1.176 q -0.264,-0.096 -0.72,-0.168 -0.444,-0.072 -0.888,-0.072 -0.624,0 -0.888,0.156 -0.252,0.144 -0.252,0.552 0,0.192 0.048,0.312 0.048,0.12 0.18,0.204 0.132,0.084 0.36,0.156 0.24,0.072 0.624,0.168 0.54,0.132 0.9,0.288 0.36,0.156 0.576,0.384 0.216,0.216 0.3,0.54 0.096,0.312 0.096,0.768 0,1.092 -0.672,1.548 -0.672,0.444 -1.896,0.444 z" />
  </g>
  <g
     id="text31"
     style="font-size:12px;font-family:'Alibaba PuHuiTi Medium';fill:#9e9e9e;fill-opacity:1"
     aria-label="t">
    <path
       id="path85"
       style="font-size:12px;font-family:'Alibaba PuHuiTi Medium';fill:#9e9e9e;fill-opacity:1"
       d="m 178.6185,160.47 v 3.12 q 0,0.312 0.024,0.516 0.036,0.204 0.12,0.324 0.096,0.12 0.252,0.168 0.156,0.036 0.408,0.036 0.168,0 0.312,-0.012 0.144,-0.012 0.276,-0.048 v 1.188 q -0.192,0.024 -0.396,0.036 -0.204,0.024 -0.408,0.024 -0.576,0 -0.984,-0.084 -0.396,-0.096 -0.648,-0.324 -0.24,-0.24 -0.348,-0.648 -0.108,-0.42 -0.108,-1.056 v -3.24 h -0.9 v -1.2 h 0.9 v -1.536 h 1.5 v 1.536 h 1.428 v 1.2 z" />
  </g>
  <g
     id="text33"
     style="font-size:12px;font-family:'Alibaba PuHuiTi Medium';fill:#9e9e9e;fill-opacity:1" />
  <g
     id="text35"
     style="font-size:12px;font-family:'Alibaba PuHuiTi Medium';fill:#9e9e9e;fill-opacity:1"
     aria-label="y">
    <path
       id="path89"
       style="font-size:12px;font-family:'Alibaba PuHuiTi Medium';fill:#9e9e9e;fill-opacity:1"
       d="m 190.489,166.854 q 0.828,0 1.2,-0.288 0.384,-0.276 0.564,-0.852 l -2.556,-6.444 h 1.656 l 1.692,4.872 h 0.072 l 1.584,-4.872 h 1.584 l -2.22,6.012 q -0.288,0.78 -0.588,1.32 -0.288,0.552 -0.684,0.888 -0.396,0.348 -0.948,0.504 -0.552,0.156 -1.356,0.156 z" />
  </g>
  <g
     id="text37"
     style="font-size:12px;font-family:'Alibaba PuHuiTi Medium';fill:#9e9e9e;fill-opacity:1"
     aria-label="o">
    <path
       id="path92"
       style="font-size:12px;font-family:'Alibaba PuHuiTi Medium';fill:#9e9e9e;fill-opacity:1"
       d="m 202.083,165.87 q -0.744,0 -1.32,-0.156 -0.576,-0.156 -0.972,-0.54 -0.396,-0.384 -0.612,-1.032 -0.204,-0.648 -0.204,-1.632 0,-0.984 0.204,-1.632 0.216,-0.648 0.612,-1.032 0.396,-0.384 0.972,-0.54 0.576,-0.156 1.32,-0.156 0.744,0 1.32,0.156 0.588,0.156 0.984,0.54 0.396,0.384 0.6,1.032 0.216,0.648 0.216,1.632 0,0.984 -0.216,1.632 -0.204,0.648 -0.6,1.032 -0.396,0.384 -0.984,0.54 -0.576,0.156 -1.32,0.156 z m 0,-1.164 q 0.456,0 0.756,-0.108 0.3,-0.108 0.48,-0.36 0.18,-0.252 0.252,-0.672 0.084,-0.42 0.084,-1.056 0,-0.624 -0.084,-1.044 -0.072,-0.432 -0.264,-0.684 -0.18,-0.264 -0.48,-0.372 -0.3,-0.108 -0.744,-0.108 -0.444,0 -0.744,0.108 -0.3,0.108 -0.48,0.372 -0.18,0.252 -0.264,0.684 -0.072,0.42 -0.072,1.044 0,0.636 0.072,1.056 0.084,0.42 0.264,0.672 0.192,0.252 0.492,0.36 0.3,0.108 0.732,0.108 z" />
  </g>
  <g
     id="text39"
     style="font-size:12px;font-family:'Alibaba PuHuiTi Medium';fill:#9e9e9e;fill-opacity:1"
     aria-label="u">
    <path
       id="path95"
       style="font-size:12px;font-family:'Alibaba PuHuiTi Medium';fill:#9e9e9e;fill-opacity:1"
       d="m 214.427,159.27 v 6.48 h -1.344 l -0.132,-0.828 q -0.276,0.528 -0.804,0.744 -0.516,0.204 -1.2,0.204 -0.612,0 -1.032,-0.144 -0.408,-0.144 -0.672,-0.42 -0.252,-0.276 -0.36,-0.672 -0.108,-0.408 -0.108,-0.912 v -4.452 h 1.5 v 4.02 q 0,0.336 0.048,0.588 0.048,0.252 0.168,0.42 0.132,0.156 0.348,0.24 0.216,0.084 0.564,0.084 0.54,0 0.936,-0.204 0.396,-0.204 0.588,-0.828 v -4.32 z" />
  </g>
  <g
     id="text41"
     style="font-size:12px;font-family:'Alibaba PuHuiTi Medium';fill:#9e9e9e;fill-opacity:1"
     aria-label="r">
    <path
       id="path98"
       style="font-size:12px;font-family:'Alibaba PuHuiTi Medium';fill:#9e9e9e;fill-opacity:1"
       d="m 221.7115,159.15 -0.048,1.344 h -0.156 q -0.312,0 -0.612,0.06 -0.288,0.06 -0.54,0.228 -0.252,0.156 -0.444,0.432 -0.192,0.264 -0.276,0.684 v 3.852 h -1.5 v -6.48 h 1.5 v 1.164 q 0.144,-0.396 0.36,-0.648 0.216,-0.252 0.468,-0.396 0.264,-0.144 0.54,-0.192 0.288,-0.048 0.576,-0.048 z" />
  </g>
  <g
     id="text43"
     style="font-size:12px;font-family:'Alibaba PuHuiTi Medium';fill:#9e9e9e;fill-opacity:1"
     aria-label="s">
    <path
       id="path101"
       style="font-size:12px;font-family:'Alibaba PuHuiTi Medium';fill:#9e9e9e;fill-opacity:1"
       d="m 227.4525,165.822 q -0.54,0 -1.08,-0.06 -0.54,-0.048 -0.924,-0.144 v -1.26 q 0.42,0.132 0.948,0.216 0.54,0.072 0.984,0.072 0.624,0 0.924,-0.156 0.3,-0.156 0.3,-0.612 0,-0.228 -0.06,-0.372 -0.048,-0.156 -0.192,-0.264 -0.144,-0.108 -0.408,-0.192 -0.252,-0.084 -0.66,-0.18 -0.528,-0.12 -0.864,-0.276 -0.336,-0.156 -0.54,-0.36 -0.192,-0.216 -0.276,-0.504 -0.072,-0.3 -0.072,-0.708 0,-0.876 0.588,-1.368 0.588,-0.504 1.908,-0.504 0.516,0 0.996,0.06 0.492,0.06 0.732,0.156 l -0.072,1.176 q -0.264,-0.096 -0.72,-0.168 -0.444,-0.072 -0.888,-0.072 -0.624,0 -0.888,0.156 -0.252,0.144 -0.252,0.552 0,0.192 0.048,0.312 0.048,0.12 0.18,0.204 0.132,0.084 0.36,0.156 0.24,0.072 0.624,0.168 0.54,0.132 0.9,0.288 0.36,0.156 0.576,0.384 0.216,0.216 0.3,0.54 0.096,0.312 0.096,0.768 0,1.092 -0.672,1.548 -0.672,0.444 -1.896,0.444 z" />
  </g>
  <g
     id="text45"
     style="font-size:12px;font-family:'Alibaba PuHuiTi Medium';fill:#9e9e9e;fill-opacity:1"
     aria-label="e">
    <path
       id="path104"
       style="font-size:12px;font-family:'Alibaba PuHuiTi Medium';fill:#9e9e9e;fill-opacity:1"
       d="m 239.045,161.946 q 0,0.24 -0.024,0.468 -0.012,0.216 -0.036,0.384 l -4.248,0.276 q 0.024,0.816 0.456,1.2 0.432,0.384 1.404,0.384 0.288,0 0.588,-0.036 0.312,-0.036 0.588,-0.096 0.288,-0.072 0.528,-0.144 0.24,-0.084 0.408,-0.168 v 1.224 q -0.288,0.168 -0.936,0.3 -0.648,0.132 -1.44,0.132 -0.744,0 -1.32,-0.156 -0.576,-0.156 -0.972,-0.54 -0.396,-0.384 -0.612,-1.032 -0.204,-0.648 -0.204,-1.632 0,-0.984 0.204,-1.632 0.216,-0.648 0.612,-1.032 0.396,-0.384 0.972,-0.54 0.576,-0.156 1.32,-0.156 0.84,0 1.368,0.228 0.528,0.216 0.828,0.6 0.3,0.384 0.408,0.888 0.108,0.504 0.108,1.08 z m -1.392,-0.156 q 0,-0.3 -0.048,-0.564 -0.036,-0.276 -0.18,-0.48 -0.144,-0.204 -0.408,-0.324 -0.252,-0.12 -0.684,-0.12 -0.456,0 -0.756,0.108 -0.3,0.108 -0.48,0.324 -0.18,0.216 -0.264,0.54 -0.084,0.312 -0.096,0.732 z" />
  </g>
  <g
     id="text47"
     style="font-size:12px;font-family:'Alibaba PuHuiTi Medium';fill:#9e9e9e;fill-opacity:1"
     aria-label="l">
    <path
       id="path107"
       style="font-size:12px;font-family:'Alibaba PuHuiTi Medium';fill:#9e9e9e;fill-opacity:1"
       d="m 244.426,165.822 q -0.96,0 -1.356,-0.372 -0.384,-0.384 -0.384,-1.212 v -7.608 h 1.5 v 7.248 q 0,0.456 0.12,0.6 0.132,0.144 0.444,0.144 0.204,0 0.396,-0.048 v 1.176 q -0.324,0.072 -0.72,0.072 z" />
  </g>
  <g
     id="text49"
     style="font-size:12px;font-family:'Alibaba PuHuiTi Medium';fill:#9e9e9e;fill-opacity:1"
     aria-label="f">
    <path
       id="path110"
       style="font-size:12px;font-family:'Alibaba PuHuiTi Medium';fill:#9e9e9e;fill-opacity:1"
       d="m 251.8545,157.698 q -0.336,0 -0.552,0.072 -0.204,0.072 -0.324,0.252 -0.12,0.168 -0.168,0.48 -0.036,0.3 -0.036,0.768 h 1.356 v 1.188 h -1.356 v 5.292 h -1.5 v -5.292 h -1.032 v -1.188 h 1.032 v -0.06 q 0,-0.84 0.168,-1.356 0.18,-0.516 0.492,-0.792 0.312,-0.288 0.756,-0.384 0.456,-0.096 1.008,-0.096 0.192,0 0.372,0.024 0.192,0.012 0.372,0.036 v 1.104 q -0.132,-0.024 -0.288,-0.036 -0.144,-0.012 -0.3,-0.012 z" />
  </g>
  <g
     id="text51"
     style="font-size:12px;font-family:'Alibaba PuHuiTi Medium';fill:#9e9e9e;fill-opacity:1"
     aria-label=".">
    <path
       id="path113"
       style="font-size:12px;font-family:'Alibaba PuHuiTi Medium';fill:#9e9e9e;fill-opacity:1"
       d="m 256.4825,165.822 q -0.3,0 -0.492,-0.036 -0.18,-0.036 -0.288,-0.132 -0.108,-0.108 -0.144,-0.288 -0.036,-0.192 -0.036,-0.504 0,-0.312 0.036,-0.504 0.036,-0.192 0.144,-0.288 0.108,-0.108 0.288,-0.132 0.192,-0.036 0.492,-0.036 0.288,0 0.468,0.036 0.192,0.024 0.3,0.132 0.108,0.096 0.144,0.288 0.048,0.192 0.048,0.504 0,0.312 -0.048,0.504 -0.036,0.18 -0.144,0.288 -0.108,0.096 -0.3,0.132 -0.18,0.036 -0.468,0.036 z" />
  </g>
</svg>
